<svg xmlns="http://www.w3.org/2000/svg" width="20.022" height="23.376" viewBox="0 0 20.022 23.376"><defs><style>.a,.b,.c{fill:#fff;}.a,.b{stroke:#fff;}.a{stroke-width:0.4px;}.b{stroke-width:2px;}</style></defs><g transform="translate(-996.934 -496.398)"><g transform="translate(997.134 499.953)"><path class="a" d="M1006.945,570.655a9.811,9.811,0,1,1,9.811-9.811A9.822,9.822,0,0,1,1006.945,570.655Zm0-18.906a9.1,9.1,0,1,0,9.1,9.1A9.106,9.106,0,0,0,1006.945,551.749Z" transform="translate(-997.134 -551.033)"/></g><g transform="translate(998.579 501.398)"><path class="b" d="M1046.141,608.407a8.365,8.365,0,1,1,8.365-8.365A8.375,8.375,0,0,1,1046.141,608.407Zm0-16.5a8.138,8.138,0,1,0,8.138,8.138A8.147,8.147,0,0,0,1046.141,591.9Z" transform="translate(-1037.775 -591.676)"/></g><g transform="translate(1005.918 508.737)"><circle class="c" cx="1.027" cy="1.027" r="1.027" transform="translate(0 0)"/></g><g transform="translate(1006.587 504.338)"><rect class="c" width="0.716" height="5.425" transform="translate(0 0)"/></g><g transform="translate(1006.587 500.311)"><rect class="c" width="0.716" height="0.85" transform="translate(0 0)"/></g><g transform="translate(1006.587 518.367)"><rect class="c" width="0.716" height="0.85" transform="translate(0 0)"/></g><g transform="translate(1001.908 501.398)"><rect class="c" width="0.716" height="0.85" transform="translate(0 0.358) rotate(-29.999)"/></g><g transform="translate(1010.937 517.035)"><rect class="c" width="0.716" height="0.85" transform="translate(0 0.358) rotate(-29.999)"/></g><g transform="translate(998.579 504.727)"><rect class="c" width="0.716" height="0.85" transform="translate(0 0.62) rotate(-60.001)"/></g><g transform="translate(1014.216 513.755)"><rect class="c" width="0.716" height="0.85" transform="translate(0 0.62) rotate(-60.001)"/></g><g transform="translate(997.492 509.406)"><rect class="c" width="0.85" height="0.716" transform="translate(0 0)"/></g><g transform="translate(1015.548 509.406)"><rect class="c" width="0.85" height="0.716" transform="translate(0 0)"/></g><g transform="translate(998.579 513.755)"><rect class="c" width="0.85" height="0.716" transform="translate(0 0.425) rotate(-29.997)"/></g><g transform="translate(1014.216 504.727)"><rect class="c" width="0.85" height="0.716" transform="translate(0 0.425) rotate(-29.997)"/></g><g transform="translate(1001.908 517.035)"><rect class="c" width="0.85" height="0.716" transform="translate(0 0.736) rotate(-60.003)"/></g><g transform="translate(1010.937 501.398)"><rect class="c" width="0.85" height="0.716" transform="translate(0 0.736) rotate(-60.003)"/></g><g transform="translate(1009.293 498.587)"><path class="c" d="M1186.312,533.309l-2.3-.959.959-2.3,2.3.959Zm-1.365-1.344.98.408.408-.98-.98-.408Z" transform="translate(-1184.011 -530.049)"/></g><g transform="translate(1004.623 496.398)"><path class="c" d="M1116.877,498.891h-4.645V496.4h4.645Zm-3.929-.716h3.213v-1.062h-3.213Z" transform="translate(-1112.232 -496.398)"/></g><g transform="translate(1005.698 498.175)"><path class="c" d="M1131.261,526.209h-2.493v-2.493h2.493Zm-1.777-.716h1.062v-1.062h-1.062Z" transform="translate(-1128.768 -523.716)"/></g></g></svg>